# xmcd
#
# Track frame offsets:
#	150
#	14418
#	25304
#	40108
#	54251
#	66551
#	80462
#	92898
#	104116
#	118143
#	131377
#	144571
#	158894
#	171615
#	186121
#	204880
#	218667
#	233150
#	243993
#	259420
#
# Disc length: 3616
#
# Revision: 1
# Processed by: cddbd v1.5.1PL0 Copyright (c) Steve Scherf et al.
# Submitted via: CDex 1.51
# Normalized: r0:DSETVAR1,TDELIM( - ),TSWAP
#
DISCID=240e1e14
DTITLE=Various Artist - Le petit dictionnaire du jazz classique CD4
DYEAR=2004
DGENRE=Jazz
TTITLE0=Django Reinhardt (& Stéphane Grappelli) - Daphné
TTITLE1=Sonny Roollins - Mambo Bounce
TTITLE2=Bessie Smith - Careless Love
TTITLE3=Stuff Smith - You'se A Viper
TTITLE4=Willie "The lion" Smith - Echoes Of Spring
TTITLE5=Rex Stewart - Solid Old man
TTITLE6=Art tatum - Get Happy
TTITLE7=Lennie Tristano - Intuition
TTITLE8=sarah vaughan - September Song
TTITLE9=Fats Waller - It's A sin To Tell A Lie
TTITLE10=Dinah Washington - Rich Man's Blues
TTITLE11=Ethel Waters - Stormy Weather
TTITLE12=Chick Webb - Liza
TTITLE13=Ben Webster - Cotton Tail
TTITLE14=Dickie Wells - I Got Rythm
TTITLE15=Paul Whiteman - Dardanella
TTITLE16=Cootie Williams - Echoes Of Harlem
TTITLE17=Teddy Wilson - I Know What You Know
TTITLE18=Lester Young - Blue Lester
TTITLE19=Bob Zurke - Cuban Boogie Woogie
EXTD=YEAR: 2004
EXTT0=
EXTT1=
EXTT2=
EXTT3=
EXTT4=
EXTT5=
EXTT6=
EXTT7=
EXTT8=
EXTT9=
EXTT10=
EXTT11=
EXTT12=
EXTT13=
EXTT14=
EXTT15=
EXTT16=
EXTT17=
EXTT18=
EXTT19=
PLAYORDER=
